<?xml version="1.0" encoding="iso-8859-1"?>
<!-- Uploaded to: SVG Repo, www.svgrepo.com, Generator: SVG Repo Mixer Tools -->
<svg fill="#000000" height="800px" width="800px" version="1.1" id="Layer_1" xmlns="http://www.w3.org/2000/svg" xmlns:xlink="http://www.w3.org/1999/xlink" 
	 viewBox="0 0 512 512" xml:space="preserve">
<g>
	<g>
		<g>
			<path d="M503.652,71.838H8.348C3.738,71.838,0,75.576,0,80.186v351.628c0,4.61,3.738,8.348,8.348,8.348h495.304
				c4.61,0,8.348-3.738,8.348-8.348V80.186C512,75.576,508.262,71.838,503.652,71.838z M495.304,181.22H449.67
				c-4.61,0-8.348,3.738-8.348,8.348s3.738,8.348,8.348,8.348h45.635v225.55H16.696v-225.55h377.104c4.61,0,8.348-3.738,8.348-8.348
				s-3.738-8.348-8.348-8.348H16.696V88.534h478.609V181.22z"/>
			<path d="M94.487,162.168h47.426h47.426c4.61,0,8.348-3.738,8.348-8.348v-42.005c0-4.61-3.738-8.348-8.348-8.348h-47.426H94.487
				c-4.61,0-8.348,3.738-8.348,8.348v42.005C86.14,158.431,89.877,162.168,94.487,162.168z M150.261,120.163h30.73v25.309h-30.73
				V120.163z M102.835,120.162h30.73v25.309h-30.73V120.162z"/>
			<path d="M322.661,162.168h47.426h47.426c4.61,0,8.348-3.738,8.348-8.348v-42.005c0-4.61-3.738-8.348-8.348-8.348h-47.426h-47.426
				c-4.61,0-8.348,3.738-8.348,8.348v42.005C314.313,158.431,318.051,162.168,322.661,162.168z M378.435,120.163h30.73v25.309
				h-30.73V120.163z M331.009,120.162h30.73v25.309h-30.73V120.162z"/>
			<path d="M278.424,236.829v82.423c0,4.61,3.738,8.348,8.348,8.348s8.348-3.738,8.348-8.348v-74.075h141.357v126.132H295.12v-16.44
				c0-4.61-3.738-8.348-8.348-8.348s-8.348,3.738-8.348,8.348v24.787c0,4.61,3.738,8.348,8.348,8.348h158.052
				c4.61,0,8.348-3.738,8.348-8.348V236.829c0-4.61-3.738-8.348-8.348-8.348H286.772
				C282.162,228.481,278.424,232.219,278.424,236.829z"/>
			<path d="M339.117,332.386c-4.714,0-8.726-2.002-8.726-5.809c0-4.607-3.811-5.709-8.124-5.709c-5.015,0-7.323,1.503-7.323,6.31
				c0,8.312,6.721,18.829,23.672,18.829c14.444,0,25.578-6.41,25.578-23.637V295.83c0-17.227-10.833-23.637-24.675-23.637
				s-24.575,6.41-24.575,23.637v0.902c0,16.025,9.629,21.032,21.064,21.032c4.815,0,9.328-0.902,12.538-4.407v9.013
				C348.545,329.282,345.035,332.386,339.117,332.386z M339.619,305.746c-5.718,0-9.028-2.805-9.028-10.115v-0.902
				c0-6.911,3.31-9.915,8.928-9.915c5.617,0,9.028,3.004,9.028,9.915v1.803C348.545,303.142,345.035,305.746,339.619,305.746z"/>
			<path d="M370.412,330.884v9.715c0,2.905,4.011,4.807,6.821,4.807h35.709c2.508,0,4.715-3.305,4.715-6.91
				c0-3.606-2.206-6.711-4.715-6.711h-26.28v-0.902c0-9.114,30.995-16.225,30.995-37.958c0-13.421-11.736-20.732-23.372-20.732
				c-11.434,0-22.669,7.011-22.669,19.229c0,6.31,3.01,8.113,7.021,8.113c5.116,0,8.225-2.805,8.225-5.709
				c0-5.508,3.511-7.512,7.523-7.512c5.618,0,7.623,3.906,7.623,7.111C402.009,306.147,370.412,315.161,370.412,330.884z"/>
			<path d="M225.228,228.481H67.176c-4.61,0-8.348,3.738-8.348,8.348v142.828c0,4.61,3.738,8.348,8.348,8.348h158.052
				c4.61,0,8.348-3.738,8.348-8.348v-24.787c0-4.61-3.738-8.348-8.348-8.348c-4.61,0-8.348,3.738-8.348,8.348v16.44H75.523V245.177
				H216.88v74.075c0,4.61,3.738,8.348,8.348,8.348c4.61,0,8.348-3.738,8.348-8.348v-82.423
				C233.575,232.219,229.838,228.481,225.228,228.481z"/>
			<path d="M141.588,292.926c0-13.421-11.736-20.732-23.372-20.732c-11.434,0-22.669,7.011-22.669,19.229
				c0,6.31,3.01,8.113,7.021,8.113c5.116,0,8.225-2.805,8.225-5.709c0-5.508,3.511-7.512,7.523-7.512
				c5.618,0,7.623,3.906,7.623,7.111c0,12.72-31.596,21.733-31.596,37.457v9.715c0,2.905,4.011,4.807,6.821,4.807h35.709
				c2.508,0,4.715-3.305,4.715-6.91c0-3.606-2.207-6.711-4.715-6.711h-26.28v-0.902C110.593,321.771,141.588,314.66,141.588,292.926
				z"/>
			<path d="M146.603,324.174v1.202c0,14.923,10.833,20.631,24.675,20.631c13.842,0,24.575-5.709,24.575-20.631v-1.202
				c0-10.316-4.915-16.325-12.337-18.828c5.918-2.003,9.931-7.011,9.931-15.324c0-12.519-9.228-17.828-22.167-17.828
				s-22.168,5.308-22.168,17.828c0,8.313,4.013,13.321,9.931,15.324C151.619,307.849,146.603,313.858,146.603,324.174z
				 M171.28,284.714c4.513,0,7.121,2.203,7.121,7.31c0,5.208-2.608,7.211-7.121,7.211c-4.515,0-7.121-2.002-7.121-7.211
				C164.157,286.917,166.765,284.714,171.28,284.714z M162.252,321.27c0-6.51,3.41-9.514,9.028-9.514
				c5.616,0,8.928,3.004,8.928,9.514v2.203c0,6.711-3.21,10.016-8.928,10.016c-5.517,0-9.028-3.105-9.028-10.016V321.27z"/>
		</g>
	</g>
</g>
</svg>